<mxfile host="app.diagrams.net" agent="Mozilla/5.0 (Macintosh; Intel Mac OS X 10_15_7) AppleWebKit/537.36 (KHTML, like Gecko) Chrome/131.0.0.0 Safari/537.36" version="26.0.2">
  <diagram id="07fea595-8f29-1299-0266-81d95cde20df" name="Page-1">
    <mxGraphModel dx="1026" dy="580" grid="1" gridSize="10" guides="1" tooltips="1" connect="1" arrows="1" fold="1" page="1" pageScale="1" pageWidth="1169" pageHeight="827" background="#ffffff" math="0" shadow="0">
      <root>
        <mxCell id="0" />
        <mxCell id="1" parent="0" />
        <mxCell id="J3lePC3tcy8HL9QRwmuM-217" value="Customer Credit Card Onboard" style="swimlane;childLayout=stackLayout;resizeParent=1;resizeParentMax=0;startSize=20;html=1;" vertex="1" parent="1">
          <mxGeometry x="40.000000000000455" y="100" width="1129.9999999999995" height="1210" as="geometry" />
        </mxCell>
        <mxCell id="J3lePC3tcy8HL9QRwmuM-218" value="Customer" style="swimlane;startSize=40;html=1;" vertex="1" parent="J3lePC3tcy8HL9QRwmuM-217">
          <mxGeometry y="20" width="120" height="1190" as="geometry" />
        </mxCell>
        <mxCell id="J3lePC3tcy8HL9QRwmuM-227" value="" style="shape=actor;whiteSpace=wrap;html=1;" vertex="1" parent="J3lePC3tcy8HL9QRwmuM-218">
          <mxGeometry x="40" y="330" width="40" height="60" as="geometry" />
        </mxCell>
        <mxCell id="J3lePC3tcy8HL9QRwmuM-219" value="&lt;span style=&quot;font-family: Arial, Helvetica, sans-serif; font-size: small; font-weight: 400; text-align: start; text-wrap-mode: wrap; background-color: rgb(255, 255, 255);&quot;&gt;Frond-End&lt;/span&gt;" style="swimlane;startSize=40;html=1;" vertex="1" parent="J3lePC3tcy8HL9QRwmuM-217">
          <mxGeometry x="120" y="20" width="180" height="1190" as="geometry" />
        </mxCell>
        <mxCell id="J3lePC3tcy8HL9QRwmuM-311" value="Profile Screen" style="sketch=0;points=[[0,0,0],[0.25,0,0],[0.5,0,0],[0.75,0,0],[1,0,0],[0,1,0],[0.25,1,0],[0.5,1,0],[0.75,1,0],[1,1,0],[0,0.25,0],[0,0.5,0],[0,0.75,0],[1,0.25,0],[1,0.5,0],[1,0.75,0]];outlineConnect=0;fontColor=#232F3E;fillColor=#01A88D;strokeColor=#ffffff;dashed=0;verticalLabelPosition=bottom;verticalAlign=top;align=center;html=1;fontSize=12;fontStyle=0;aspect=fixed;shape=mxgraph.aws4.resourceIcon;resIcon=mxgraph.aws4.desktop_and_app_streaming;" vertex="1" parent="J3lePC3tcy8HL9QRwmuM-219">
          <mxGeometry x="61" y="71" width="58" height="58" as="geometry" />
        </mxCell>
        <mxCell id="J3lePC3tcy8HL9QRwmuM-312" value="Credit card application" style="sketch=0;points=[[0,0,0],[0.25,0,0],[0.5,0,0],[0.75,0,0],[1,0,0],[0,1,0],[0.25,1,0],[0.5,1,0],[0.75,1,0],[1,1,0],[0,0.25,0],[0,0.5,0],[0,0.75,0],[1,0.25,0],[1,0.5,0],[1,0.75,0]];outlineConnect=0;fontColor=#232F3E;fillColor=#01A88D;strokeColor=#ffffff;dashed=0;verticalLabelPosition=bottom;verticalAlign=top;align=center;html=1;fontSize=12;fontStyle=0;aspect=fixed;shape=mxgraph.aws4.resourceIcon;resIcon=mxgraph.aws4.desktop_and_app_streaming;" vertex="1" parent="J3lePC3tcy8HL9QRwmuM-219">
          <mxGeometry x="71" y="480" width="58" height="58" as="geometry" />
        </mxCell>
        <mxCell id="J3lePC3tcy8HL9QRwmuM-220" value="Credit Engine" style="swimlane;startSize=40;html=1;" vertex="1" parent="J3lePC3tcy8HL9QRwmuM-217">
          <mxGeometry x="300" y="20" width="145" height="1190" as="geometry" />
        </mxCell>
        <mxCell id="J3lePC3tcy8HL9QRwmuM-243" style="edgeStyle=orthogonalEdgeStyle;rounded=0;orthogonalLoop=1;jettySize=auto;html=1;entryX=0.5;entryY=0;entryDx=0;entryDy=0;" edge="1" parent="J3lePC3tcy8HL9QRwmuM-220" source="J3lePC3tcy8HL9QRwmuM-236" target="J3lePC3tcy8HL9QRwmuM-240">
          <mxGeometry relative="1" as="geometry" />
        </mxCell>
        <mxCell id="J3lePC3tcy8HL9QRwmuM-236" value="Validate&lt;br&gt;basic infos" style="rounded=0;whiteSpace=wrap;html=1;fillColor=#f8cecc;strokeColor=#b85450;" vertex="1" parent="J3lePC3tcy8HL9QRwmuM-220">
          <mxGeometry x="32.5" y="80" width="97.5" height="40" as="geometry" />
        </mxCell>
        <mxCell id="J3lePC3tcy8HL9QRwmuM-250" style="edgeStyle=orthogonalEdgeStyle;rounded=0;orthogonalLoop=1;jettySize=auto;html=1;entryX=0.5;entryY=0;entryDx=0;entryDy=0;" edge="1" parent="J3lePC3tcy8HL9QRwmuM-220" source="J3lePC3tcy8HL9QRwmuM-240" target="J3lePC3tcy8HL9QRwmuM-249">
          <mxGeometry relative="1" as="geometry" />
        </mxCell>
        <mxCell id="J3lePC3tcy8HL9QRwmuM-240" value="Validate&lt;br&gt;customer" style="rounded=0;whiteSpace=wrap;html=1;fillColor=#f8cecc;strokeColor=#b85450;" vertex="1" parent="J3lePC3tcy8HL9QRwmuM-220">
          <mxGeometry x="31.25" y="150" width="97.5" height="60" as="geometry" />
        </mxCell>
        <mxCell id="J3lePC3tcy8HL9QRwmuM-249" value="Is customer&lt;br&gt;KYC &lt;br&gt;approved" style="rhombus;whiteSpace=wrap;html=1;" vertex="1" parent="J3lePC3tcy8HL9QRwmuM-220">
          <mxGeometry x="30" y="240" width="100" height="80" as="geometry" />
        </mxCell>
        <mxCell id="J3lePC3tcy8HL9QRwmuM-267" value="Data&lt;br&gt;Collection" style="rounded=0;whiteSpace=wrap;html=1;fillColor=#f5f5f5;fontColor=#333333;strokeColor=#666666;" vertex="1" parent="J3lePC3tcy8HL9QRwmuM-220">
          <mxGeometry x="23.75" y="390" width="97.5" height="330" as="geometry" />
        </mxCell>
        <mxCell id="J3lePC3tcy8HL9QRwmuM-295" value="Application&lt;br&gt;Analysis" style="rounded=0;whiteSpace=wrap;html=1;fillColor=#f8cecc;strokeColor=#b85450;" vertex="1" parent="J3lePC3tcy8HL9QRwmuM-220">
          <mxGeometry x="28.12" y="1080" width="88.75" height="60" as="geometry" />
        </mxCell>
        <mxCell id="J3lePC3tcy8HL9QRwmuM-299" value="Predictive models" style="rounded=0;whiteSpace=wrap;html=1;fillColor=#f8cecc;strokeColor=#b85450;" vertex="1" parent="J3lePC3tcy8HL9QRwmuM-220">
          <mxGeometry x="28.119999999999997" y="903.75" width="88.75" height="50" as="geometry" />
        </mxCell>
        <mxCell id="J3lePC3tcy8HL9QRwmuM-296" style="edgeStyle=orthogonalEdgeStyle;rounded=0;orthogonalLoop=1;jettySize=auto;html=1;entryX=0.386;entryY=-0.039;entryDx=0;entryDy=0;entryPerimeter=0;" edge="1" parent="J3lePC3tcy8HL9QRwmuM-220" source="J3lePC3tcy8HL9QRwmuM-267" target="J3lePC3tcy8HL9QRwmuM-299">
          <mxGeometry relative="1" as="geometry" />
        </mxCell>
        <mxCell id="J3lePC3tcy8HL9QRwmuM-300" style="edgeStyle=orthogonalEdgeStyle;rounded=0;orthogonalLoop=1;jettySize=auto;html=1;" edge="1" parent="J3lePC3tcy8HL9QRwmuM-220" source="J3lePC3tcy8HL9QRwmuM-299" target="J3lePC3tcy8HL9QRwmuM-295">
          <mxGeometry relative="1" as="geometry">
            <mxPoint x="72.50500000000011" y="990" as="targetPoint" />
          </mxGeometry>
        </mxCell>
        <mxCell id="J3lePC3tcy8HL9QRwmuM-224" value="Internal &lt;br&gt;sources" style="swimlane;startSize=40;html=1;" vertex="1" parent="J3lePC3tcy8HL9QRwmuM-217">
          <mxGeometry x="445" y="20" width="195" height="1190" as="geometry" />
        </mxCell>
        <mxCell id="J3lePC3tcy8HL9QRwmuM-232" value="Customer profile" style="shape=cylinder3;whiteSpace=wrap;html=1;boundedLbl=1;backgroundOutline=1;size=15;fillColor=#f5f5f5;fontColor=#333333;strokeColor=#666666;" vertex="1" parent="J3lePC3tcy8HL9QRwmuM-224">
          <mxGeometry x="75" y="242.5" width="75" height="77.5" as="geometry" />
        </mxCell>
        <mxCell id="J3lePC3tcy8HL9QRwmuM-269" value="Collected internal data" style="rounded=0;whiteSpace=wrap;html=1;fillColor=#f5f5f5;fontColor=#333333;strokeColor=#666666;" vertex="1" parent="J3lePC3tcy8HL9QRwmuM-224">
          <mxGeometry x="75" y="390" width="97.5" height="38" as="geometry" />
        </mxCell>
        <mxCell id="J3lePC3tcy8HL9QRwmuM-270" style="edgeStyle=orthogonalEdgeStyle;rounded=0;orthogonalLoop=1;jettySize=auto;html=1;entryX=1;entryY=0.5;entryDx=0;entryDy=0;entryPerimeter=0;" edge="1" parent="J3lePC3tcy8HL9QRwmuM-224" source="J3lePC3tcy8HL9QRwmuM-269" target="J3lePC3tcy8HL9QRwmuM-232">
          <mxGeometry relative="1" as="geometry" />
        </mxCell>
        <mxCell id="J3lePC3tcy8HL9QRwmuM-293" value="Application&lt;br&gt;request" style="shape=cylinder3;whiteSpace=wrap;html=1;boundedLbl=1;backgroundOutline=1;size=15;fillColor=#f5f5f5;fontColor=#333333;strokeColor=#666666;" vertex="1" parent="J3lePC3tcy8HL9QRwmuM-224">
          <mxGeometry x="65" y="770" width="75" height="77.5" as="geometry" />
        </mxCell>
        <mxCell id="J3lePC3tcy8HL9QRwmuM-319" style="edgeStyle=orthogonalEdgeStyle;rounded=0;orthogonalLoop=1;jettySize=auto;html=1;" edge="1" parent="J3lePC3tcy8HL9QRwmuM-224" source="J3lePC3tcy8HL9QRwmuM-301">
          <mxGeometry relative="1" as="geometry">
            <mxPoint x="-25.000000000000455" y="929.25" as="targetPoint" />
          </mxGeometry>
        </mxCell>
        <mxCell id="J3lePC3tcy8HL9QRwmuM-301" value="" style="shape=cylinder3;whiteSpace=wrap;html=1;boundedLbl=1;backgroundOutline=1;size=15;fillColor=#f5f5f5;fontColor=#333333;strokeColor=#666666;" vertex="1" parent="J3lePC3tcy8HL9QRwmuM-224">
          <mxGeometry x="65" y="880" width="95" height="98.5" as="geometry" />
        </mxCell>
        <mxCell id="J3lePC3tcy8HL9QRwmuM-307" value="Credit card&lt;br&gt;application proposal" style="shape=cylinder3;whiteSpace=wrap;html=1;boundedLbl=1;backgroundOutline=1;size=15;fillColor=#f5f5f5;fontColor=#333333;strokeColor=#666666;" vertex="1" parent="J3lePC3tcy8HL9QRwmuM-224">
          <mxGeometry x="60" y="1070" width="100" height="80" as="geometry" />
        </mxCell>
        <mxCell id="J3lePC3tcy8HL9QRwmuM-313" value="Model respository" style="sketch=0;outlineConnect=0;fontColor=#232F3E;gradientColor=none;fillColor=#01A88D;strokeColor=none;dashed=0;verticalLabelPosition=bottom;verticalAlign=top;align=center;html=1;fontSize=12;fontStyle=0;aspect=fixed;pointerEvents=1;shape=mxgraph.aws4.sagemaker_model;" vertex="1" parent="J3lePC3tcy8HL9QRwmuM-224">
          <mxGeometry x="100" y="904.75" width="28" height="28" as="geometry" />
        </mxCell>
        <mxCell id="J3lePC3tcy8HL9QRwmuM-221" value="KYC" style="swimlane;startSize=40;html=1;" vertex="1" parent="J3lePC3tcy8HL9QRwmuM-217">
          <mxGeometry x="640" y="20" width="120" height="1190" as="geometry" />
        </mxCell>
        <mxCell id="J3lePC3tcy8HL9QRwmuM-314" value="SEON&lt;br&gt;API call" style="ellipse;shape=cloud;whiteSpace=wrap;html=1;fillColor=#e6d0de;gradientColor=#d5739d;strokeColor=#996185;" vertex="1" parent="J3lePC3tcy8HL9QRwmuM-221">
          <mxGeometry x="9.999999999999545" y="146" width="100" height="68" as="geometry" />
        </mxCell>
        <mxCell id="J3lePC3tcy8HL9QRwmuM-315" value="SEON&lt;br&gt;API call" style="ellipse;shape=cloud;whiteSpace=wrap;html=1;fillColor=#e6d0de;gradientColor=#d5739d;strokeColor=#996185;" vertex="1" parent="J3lePC3tcy8HL9QRwmuM-221">
          <mxGeometry x="19.999999999999545" y="440" width="100" height="66" as="geometry" />
        </mxCell>
        <mxCell id="J3lePC3tcy8HL9QRwmuM-223" value="Credit history" style="swimlane;startSize=40;html=1;" vertex="1" parent="J3lePC3tcy8HL9QRwmuM-217">
          <mxGeometry x="760" y="20" width="129.99999999999955" height="1190" as="geometry" />
        </mxCell>
        <mxCell id="J3lePC3tcy8HL9QRwmuM-316" value="Experian&lt;br&gt;API call" style="ellipse;shape=cloud;whiteSpace=wrap;html=1;fillColor=#e6d0de;gradientColor=#d5739d;strokeColor=#996185;" vertex="1" parent="J3lePC3tcy8HL9QRwmuM-223">
          <mxGeometry x="14.999999999999545" y="510" width="100" height="66" as="geometry" />
        </mxCell>
        <mxCell id="J3lePC3tcy8HL9QRwmuM-225" value="Income&amp;nbsp;" style="swimlane;startSize=40;html=1;" vertex="1" parent="J3lePC3tcy8HL9QRwmuM-217">
          <mxGeometry x="889.9999999999995" y="20" width="120" height="1190" as="geometry" />
        </mxCell>
        <mxCell id="J3lePC3tcy8HL9QRwmuM-317" value="Plaid&lt;br&gt;API call" style="ellipse;shape=cloud;whiteSpace=wrap;html=1;fillColor=#e6d0de;gradientColor=#d5739d;strokeColor=#996185;" vertex="1" parent="J3lePC3tcy8HL9QRwmuM-225">
          <mxGeometry x="12" y="610" width="91" height="66" as="geometry" />
        </mxCell>
        <mxCell id="J3lePC3tcy8HL9QRwmuM-304" value="Management&lt;br&gt;Reporting" style="swimlane;startSize=40;html=1;" vertex="1" parent="J3lePC3tcy8HL9QRwmuM-217">
          <mxGeometry x="1009.9999999999995" y="20" width="120" height="1190" as="geometry" />
        </mxCell>
        <mxCell id="J3lePC3tcy8HL9QRwmuM-306" value="" style="sketch=0;outlineConnect=0;fontColor=#232F3E;gradientColor=none;fillColor=#8C4FFF;strokeColor=none;dashed=0;verticalLabelPosition=bottom;verticalAlign=top;align=center;html=1;fontSize=12;fontStyle=0;aspect=fixed;pointerEvents=1;shape=mxgraph.aws4.opensearch_dashboards;" vertex="1" parent="J3lePC3tcy8HL9QRwmuM-304">
          <mxGeometry x="20.999999999999545" y="1039.25" width="78" height="59" as="geometry" />
        </mxCell>
        <mxCell id="J3lePC3tcy8HL9QRwmuM-233" style="edgeStyle=orthogonalEdgeStyle;rounded=0;orthogonalLoop=1;jettySize=auto;html=1;entryX=0;entryY=0.5;entryDx=0;entryDy=0;" edge="1" parent="J3lePC3tcy8HL9QRwmuM-217" source="J3lePC3tcy8HL9QRwmuM-311" target="J3lePC3tcy8HL9QRwmuM-236">
          <mxGeometry relative="1" as="geometry" />
        </mxCell>
        <mxCell id="J3lePC3tcy8HL9QRwmuM-230" style="edgeStyle=orthogonalEdgeStyle;rounded=0;orthogonalLoop=1;jettySize=auto;html=1;entryX=0;entryY=0.5;entryDx=0;entryDy=0;entryPerimeter=0;" edge="1" parent="J3lePC3tcy8HL9QRwmuM-217" source="J3lePC3tcy8HL9QRwmuM-227" target="J3lePC3tcy8HL9QRwmuM-311">
          <mxGeometry relative="1" as="geometry" />
        </mxCell>
        <mxCell id="J3lePC3tcy8HL9QRwmuM-248" style="edgeStyle=orthogonalEdgeStyle;rounded=0;orthogonalLoop=1;jettySize=auto;html=1;entryX=1;entryY=0.75;entryDx=0;entryDy=0;exitX=0.55;exitY=0.95;exitDx=0;exitDy=0;exitPerimeter=0;" edge="1" parent="J3lePC3tcy8HL9QRwmuM-217" source="J3lePC3tcy8HL9QRwmuM-314" target="J3lePC3tcy8HL9QRwmuM-240">
          <mxGeometry relative="1" as="geometry" />
        </mxCell>
        <mxCell id="J3lePC3tcy8HL9QRwmuM-251" value="Yes" style="edgeStyle=orthogonalEdgeStyle;rounded=0;orthogonalLoop=1;jettySize=auto;html=1;entryX=0;entryY=0.5;entryDx=0;entryDy=0;entryPerimeter=0;" edge="1" parent="J3lePC3tcy8HL9QRwmuM-217" source="J3lePC3tcy8HL9QRwmuM-249" target="J3lePC3tcy8HL9QRwmuM-232">
          <mxGeometry relative="1" as="geometry" />
        </mxCell>
        <mxCell id="J3lePC3tcy8HL9QRwmuM-255" style="edgeStyle=orthogonalEdgeStyle;rounded=0;orthogonalLoop=1;jettySize=auto;html=1;" edge="1" parent="J3lePC3tcy8HL9QRwmuM-217" source="J3lePC3tcy8HL9QRwmuM-240" target="J3lePC3tcy8HL9QRwmuM-314">
          <mxGeometry relative="1" as="geometry" />
        </mxCell>
        <mxCell id="J3lePC3tcy8HL9QRwmuM-259" value="No" style="edgeStyle=orthogonalEdgeStyle;rounded=0;orthogonalLoop=1;jettySize=auto;html=1;" edge="1" parent="J3lePC3tcy8HL9QRwmuM-217" source="J3lePC3tcy8HL9QRwmuM-249" target="J3lePC3tcy8HL9QRwmuM-311">
          <mxGeometry relative="1" as="geometry" />
        </mxCell>
        <mxCell id="J3lePC3tcy8HL9QRwmuM-260" value="Yes" style="edgeStyle=orthogonalEdgeStyle;rounded=0;orthogonalLoop=1;jettySize=auto;html=1;exitX=0.5;exitY=1;exitDx=0;exitDy=0;exitPerimeter=0;entryX=0.25;entryY=1;entryDx=0;entryDy=0;entryPerimeter=0;" edge="1" parent="J3lePC3tcy8HL9QRwmuM-217" source="J3lePC3tcy8HL9QRwmuM-232" target="J3lePC3tcy8HL9QRwmuM-311">
          <mxGeometry relative="1" as="geometry">
            <mxPoint x="220" y="270" as="targetPoint" />
          </mxGeometry>
        </mxCell>
        <mxCell id="J3lePC3tcy8HL9QRwmuM-262" value="Fill credit&lt;br&gt;application" style="edgeStyle=orthogonalEdgeStyle;rounded=0;orthogonalLoop=1;jettySize=auto;html=1;entryX=0;entryY=0.5;entryDx=0;entryDy=0;entryPerimeter=0;" edge="1" parent="J3lePC3tcy8HL9QRwmuM-217" source="J3lePC3tcy8HL9QRwmuM-227" target="J3lePC3tcy8HL9QRwmuM-312">
          <mxGeometry relative="1" as="geometry">
            <mxPoint as="offset" />
          </mxGeometry>
        </mxCell>
        <mxCell id="J3lePC3tcy8HL9QRwmuM-268" style="edgeStyle=orthogonalEdgeStyle;rounded=0;orthogonalLoop=1;jettySize=auto;html=1;entryX=0.033;entryY=0.45;entryDx=0;entryDy=0;entryPerimeter=0;exitX=1;exitY=0.5;exitDx=0;exitDy=0;exitPerimeter=0;" edge="1" parent="J3lePC3tcy8HL9QRwmuM-217" source="J3lePC3tcy8HL9QRwmuM-312" target="J3lePC3tcy8HL9QRwmuM-267">
          <mxGeometry relative="1" as="geometry" />
        </mxCell>
        <mxCell id="J3lePC3tcy8HL9QRwmuM-274" style="edgeStyle=orthogonalEdgeStyle;rounded=0;orthogonalLoop=1;jettySize=auto;html=1;exitX=1;exitY=0.25;exitDx=0;exitDy=0;" edge="1" parent="J3lePC3tcy8HL9QRwmuM-217" source="J3lePC3tcy8HL9QRwmuM-267" target="J3lePC3tcy8HL9QRwmuM-315">
          <mxGeometry relative="1" as="geometry">
            <mxPoint x="469.99999999999955" y="490" as="sourcePoint" />
          </mxGeometry>
        </mxCell>
        <mxCell id="J3lePC3tcy8HL9QRwmuM-275" style="edgeStyle=orthogonalEdgeStyle;rounded=0;orthogonalLoop=1;jettySize=auto;html=1;exitX=0.395;exitY=0.956;exitDx=0;exitDy=0;entryX=0.992;entryY=0.382;entryDx=0;entryDy=0;entryPerimeter=0;exitPerimeter=0;" edge="1" parent="J3lePC3tcy8HL9QRwmuM-217" source="J3lePC3tcy8HL9QRwmuM-315" target="J3lePC3tcy8HL9QRwmuM-267">
          <mxGeometry relative="1" as="geometry">
            <mxPoint x="469.99999999999955" y="550" as="targetPoint" />
          </mxGeometry>
        </mxCell>
        <mxCell id="J3lePC3tcy8HL9QRwmuM-283" style="edgeStyle=orthogonalEdgeStyle;rounded=0;orthogonalLoop=1;jettySize=auto;html=1;entryX=0.972;entryY=0.621;entryDx=0;entryDy=0;entryPerimeter=0;exitX=0.55;exitY=0.95;exitDx=0;exitDy=0;exitPerimeter=0;" edge="1" parent="J3lePC3tcy8HL9QRwmuM-217" source="J3lePC3tcy8HL9QRwmuM-316" target="J3lePC3tcy8HL9QRwmuM-267">
          <mxGeometry relative="1" as="geometry">
            <mxPoint x="830" y="591" as="sourcePoint" />
          </mxGeometry>
        </mxCell>
        <mxCell id="J3lePC3tcy8HL9QRwmuM-287" style="edgeStyle=orthogonalEdgeStyle;rounded=0;orthogonalLoop=1;jettySize=auto;html=1;entryX=0.16;entryY=0.55;entryDx=0;entryDy=0;exitX=1.013;exitY=0.473;exitDx=0;exitDy=0;exitPerimeter=0;entryPerimeter=0;" edge="1" parent="J3lePC3tcy8HL9QRwmuM-217" source="J3lePC3tcy8HL9QRwmuM-267" target="J3lePC3tcy8HL9QRwmuM-316">
          <mxGeometry relative="1" as="geometry">
            <mxPoint x="790" y="565.5" as="targetPoint" />
          </mxGeometry>
        </mxCell>
        <mxCell id="J3lePC3tcy8HL9QRwmuM-288" style="edgeStyle=orthogonalEdgeStyle;rounded=0;orthogonalLoop=1;jettySize=auto;html=1;entryX=0;entryY=0.5;entryDx=0;entryDy=0;exitX=1.003;exitY=0.056;exitDx=0;exitDy=0;exitPerimeter=0;" edge="1" parent="J3lePC3tcy8HL9QRwmuM-217" source="J3lePC3tcy8HL9QRwmuM-267" target="J3lePC3tcy8HL9QRwmuM-269">
          <mxGeometry relative="1" as="geometry" />
        </mxCell>
        <mxCell id="J3lePC3tcy8HL9QRwmuM-289" style="edgeStyle=orthogonalEdgeStyle;rounded=0;orthogonalLoop=1;jettySize=auto;html=1;entryX=0.962;entryY=0.178;entryDx=0;entryDy=0;entryPerimeter=0;exitX=0.5;exitY=1;exitDx=0;exitDy=0;" edge="1" parent="J3lePC3tcy8HL9QRwmuM-217" source="J3lePC3tcy8HL9QRwmuM-269" target="J3lePC3tcy8HL9QRwmuM-267">
          <mxGeometry relative="1" as="geometry" />
        </mxCell>
        <mxCell id="J3lePC3tcy8HL9QRwmuM-292" style="edgeStyle=orthogonalEdgeStyle;rounded=0;orthogonalLoop=1;jettySize=auto;html=1;entryX=1.003;entryY=0.882;entryDx=0;entryDy=0;entryPerimeter=0;exitX=0.55;exitY=0.95;exitDx=0;exitDy=0;exitPerimeter=0;" edge="1" parent="J3lePC3tcy8HL9QRwmuM-217" source="J3lePC3tcy8HL9QRwmuM-317" target="J3lePC3tcy8HL9QRwmuM-267">
          <mxGeometry relative="1" as="geometry" />
        </mxCell>
        <mxCell id="J3lePC3tcy8HL9QRwmuM-294" value="Persist&lt;br&gt;&amp;nbsp;application data" style="edgeStyle=orthogonalEdgeStyle;rounded=0;orthogonalLoop=1;jettySize=auto;html=1;entryX=0;entryY=0.5;entryDx=0;entryDy=0;entryPerimeter=0;exitX=0.5;exitY=1;exitDx=0;exitDy=0;" edge="1" parent="J3lePC3tcy8HL9QRwmuM-217" source="J3lePC3tcy8HL9QRwmuM-267" target="J3lePC3tcy8HL9QRwmuM-293">
          <mxGeometry relative="1" as="geometry">
            <mxPoint x="412.5" y="800" as="targetPoint" />
          </mxGeometry>
        </mxCell>
        <mxCell id="J3lePC3tcy8HL9QRwmuM-298" value="Feedback" style="edgeStyle=orthogonalEdgeStyle;rounded=0;orthogonalLoop=1;jettySize=auto;html=1;entryX=0.5;entryY=1;entryDx=0;entryDy=0;entryPerimeter=0;" edge="1" parent="J3lePC3tcy8HL9QRwmuM-217" source="J3lePC3tcy8HL9QRwmuM-295" target="J3lePC3tcy8HL9QRwmuM-312">
          <mxGeometry relative="1" as="geometry" />
        </mxCell>
        <mxCell id="J3lePC3tcy8HL9QRwmuM-302" style="edgeStyle=orthogonalEdgeStyle;rounded=0;orthogonalLoop=1;jettySize=auto;html=1;" edge="1" parent="J3lePC3tcy8HL9QRwmuM-217" source="J3lePC3tcy8HL9QRwmuM-299" target="J3lePC3tcy8HL9QRwmuM-301">
          <mxGeometry relative="1" as="geometry" />
        </mxCell>
        <mxCell id="J3lePC3tcy8HL9QRwmuM-308" style="edgeStyle=orthogonalEdgeStyle;rounded=0;orthogonalLoop=1;jettySize=auto;html=1;entryX=0;entryY=0.5;entryDx=0;entryDy=0;entryPerimeter=0;" edge="1" parent="J3lePC3tcy8HL9QRwmuM-217" source="J3lePC3tcy8HL9QRwmuM-295" target="J3lePC3tcy8HL9QRwmuM-307">
          <mxGeometry relative="1" as="geometry" />
        </mxCell>
        <mxCell id="J3lePC3tcy8HL9QRwmuM-309" style="edgeStyle=orthogonalEdgeStyle;rounded=0;orthogonalLoop=1;jettySize=auto;html=1;" edge="1" parent="J3lePC3tcy8HL9QRwmuM-217" source="J3lePC3tcy8HL9QRwmuM-307" target="J3lePC3tcy8HL9QRwmuM-306">
          <mxGeometry relative="1" as="geometry" />
        </mxCell>
        <mxCell id="J3lePC3tcy8HL9QRwmuM-318" style="edgeStyle=orthogonalEdgeStyle;rounded=0;orthogonalLoop=1;jettySize=auto;html=1;exitX=1;exitY=0.75;exitDx=0;exitDy=0;entryX=0.07;entryY=0.4;entryDx=0;entryDy=0;entryPerimeter=0;" edge="1" parent="J3lePC3tcy8HL9QRwmuM-217" source="J3lePC3tcy8HL9QRwmuM-267" target="J3lePC3tcy8HL9QRwmuM-317">
          <mxGeometry relative="1" as="geometry" />
        </mxCell>
      </root>
    </mxGraphModel>
  </diagram>
</mxfile>
